Coordinates
version=1
nRows=11
nColumns=63
inDegrees=yes

Units are S.I. units (second, meters, Newtons, ...)
If the header above contains a line with 'inDegrees', this indicates whether rotational values are in degrees (yes) or radians (no).

endheader
time	pelvis_tilt	pelvis_list	pelvis_rotation	pelvis_tx	pelvis_ty	pelvis_tz	hip_flexion_r	hip_adduction_r	hip_rotation_r	knee_angle_r	knee_angle_r_beta	ankle_angle_r	subtalar_angle_r	mtp_angle_r	hip_flexion_l	hip_adduction_l	hip_rotation_l	knee_angle_l	knee_angle_l_beta	ankle_angle_l	subtalar_angle_l	mtp_angle_l	L5_S1_Flex_Ext	L5_S1_Lat_Bending	L5_S1_axial_rotation	L4_L5_Flex_Ext	L4_L5_Lat_Bending	L4_L5_axial_rotation	L3_L4_Flex_Ext	L3_L4_Lat_Bending	L3_L4_axial_rotation	L2_L3_Flex_Ext	L2_L3_Lat_Bending	L2_L3_axial_rotation	L1_L2_Flex_Ext	L1_L2_Lat_Bending	L1_L2_axial_rotation	L1_T12_Flex_Ext	L1_T12_Lat_Bending	L1_T12_axial_rotation	Abs_r3	Abs_r2	Abs_r1	Abs_t1	Abs_t2	neck_flexion	neck_bending	neck_rotation	arm_flex_r	arm_add_r	arm_rot_r	elbow_flex_r	pro_sup_r	wrist_flex_r	wrist_dev_r	arm_flex_l	arm_add_l	arm_rot_l	elbow_flex_l	pro_sup_l	wrist_flex_l	wrist_dev_l
      2.95000000	      2.70000890	     -9.27252168	     90.41799278	      0.19914658	      0.73528242	      0.47411004	      0.88844880	      6.17920165	     -2.20147483	      5.82643377	      0.10169045	     31.27306442	     -8.53951416	      0.00000000	      4.16863435	     -3.34131050	      2.84365059	     12.46346125	      0.21752844	     39.36059901	      6.45478064	      0.00000000	     -0.15953525	      0.66361476	      0.45181991	     -0.29627292	      0.88260763	      0.48005865	     -0.26210046	      1.61351292	      0.48005865	     -0.18233284	      1.61351292	      0.39534242	     -0.14814443	      1.35324321	      0.36710367	     -0.09115844	      1.02793926	      0.33886493	     -1.13954435	      7.50694287	      2.51288678	      0.00000000	      0.00000000	     17.39077253	    -22.01476700	     18.12365263	      2.09200685	    -16.73492007	     55.46904034	     21.90182565	     70.17841113	     -8.67801417	     -3.02024036	      5.10551839	     -6.14894934	    149.66470514	      0.55478042	     29.41469155	    -32.82208063	    -14.61177927
      2.96666667	      2.19913759	     -8.96291382	     89.96636038	      0.20072682	      0.73573485	      0.47159845	      0.30844748	      5.73889240	     -1.80234430	      5.69629918	      0.09941918	     31.67840992	     -8.28011412	      0.00000000	      3.54409753	     -3.05129730	      1.23188200	     12.25627556	      0.21391236	     39.83528926	      8.34656206	      0.00000000	     -0.16202491	      0.63558473	      0.44682767	     -0.30089647	      0.84532770	      0.47475440	     -0.26619073	      1.54536072	      0.47475440	     -0.18517827	      1.54536072	      0.39097421	     -0.15045634	      1.29608439	      0.36304748	     -0.09258104	      0.98452075	      0.33512075	     -1.15732776	      7.18986162	      2.48512144	      0.00000000	      0.00000000	     17.19637411	    -20.06857807	     18.09235582	      6.10859903	    -16.13721731	     81.51189552	     18.48187447	     50.86448802	    -10.39949187	     -7.08495274	      5.17666738	     -6.20654142	    153.77287006	      0.49945482	     36.45967931	    -39.17901886	    -13.71923508
      2.98333333	      1.85087495	     -8.77057390	     89.56066388	      0.20170982	      0.73576752	      0.46945092	     -0.08738917	      5.41047076	     -1.59956824	      5.66191109	      0.09881899	     32.13745252	     -8.02092655	      0.00000000	      3.06245146	     -2.77377535	      0.60998182	     12.11039132	      0.21136620	     39.93676059	      8.60900293	      0.00000000	     -0.15897950	      0.63938620	      0.54960905	     -0.29524083	      0.85038364	      0.58395961	     -0.26118742	      1.55460360	      0.58395961	     -0.18169767	      1.55460360	      0.48090792	     -0.14762836	      1.30383633	      0.44655735	     -0.09084089	      0.99040922	      0.41220678	     -1.13557468	      7.23286452	      3.05676063	      0.00000000	      0.00000000	     17.96083804	    -19.60897670	     17.58296919	      6.43139685	    -15.88461516	     84.45462455	     17.93822516	     53.23454554	    -11.13407751	     -6.41573283	      5.65229589	     -6.09920668	    157.45422452	      0.47037536	     39.82873338	    -41.85538925	    -15.02978743
      3.00000000	      1.28383831	     -8.80052773	     89.14575957	      0.20351980	      0.73572147	      0.46762821	     -0.18238481	      4.90617882	     -1.19623526	      5.69761940	      0.09944222	     32.64515195	     -7.94990463	      0.00000000	      2.79052562	     -2.48872129	     -1.59698589	     11.94418270	      0.20846531	     39.97175743	     10.75241899	      0.00000000	     -0.13625773	      0.60200702	      0.60352687	     -0.25304423	      0.80066934	      0.64124730	     -0.22385782	      1.46371987	      0.64124730	     -0.15572896	      1.46371987	      0.52808601	     -0.12652893	      1.22761271	      0.49036558	     -0.07785767	      0.93250887	      0.45264515	     -0.97327534	      6.81002380	      3.35663541	      0.00000000	      0.00000000	     19.30645352	    -19.63275080	     17.06392056	      9.48359021	    -11.47773908	    134.60652121	     10.31279385	      9.00486761	     -7.48100676	    -12.20782565	      5.69432411	     -5.91542001	    159.04342945	      0.53973738	     46.96184472	    -47.79521098	    -10.10214546
      3.01666667	      1.24212663	     -8.90393164	     89.00856464	      0.20335064	      0.73543092	      0.46652731	     -0.16588075	      4.84150173	     -1.02570681	      5.66439933	      0.09886242	     32.99079770	     -7.81191341	      0.00000000	      2.65367468	     -2.47876991	     -1.93090569	     11.77987799	      0.20559766	     39.70151123	     10.66417813	      0.00000000	     -0.11482240	      0.65305092	      0.65077188	     -0.21323667	      0.86855772	      0.69144512	     -0.18864172	      1.58782801	      0.69144512	     -0.13123052	      1.58782801	      0.56942539	     -0.10662408	      1.33170143	      0.52875215	     -0.06560952	      1.01157587	      0.48807891	     -0.82016490	      7.38744261	      3.61939796	      0.00000000	      0.00000000	     21.11483120	    -20.24043866	     16.85118556	      9.44980337	    -11.71673525	    134.50924775	     10.50660573	      8.93918120	     -7.31677929	    -12.00008586	      5.99599701	     -5.38543253	    159.58846823	      0.59280049	     47.34338009	    -48.85858531	    -10.48829591
      3.03333333	      1.21213462	     -8.94615236	     88.64943414	      0.20338176	      0.73525721	      0.46624948	     -0.01031199	      4.77185687	     -0.61872881	      5.83275100	      0.10180071	     33.49795695	     -7.48701058	      0.00000000	      2.54476977	     -2.49772606	     -2.59359961	     11.80761929	      0.20608183	     39.41466459	     10.58016575	      0.00000000	     -0.11769361	      0.70983466	      0.74796737	     -0.21856880	      0.94408010	      0.79471534	     -0.19335883	      1.72589200	      0.79471534	     -0.13451203	      1.72589200	      0.65447145	     -0.10929029	      1.44749484	      0.60772349	     -0.06725013	      1.09953389	      0.56097553	     -0.84067369	      8.02979167	      4.15997015	      0.00000000	      0.00000000	     22.68493451	    -21.75107050	     16.44424150	      9.41801340	    -12.04798007	    133.45841374	     10.65087149	      8.16183654	     -6.56330733	    -12.18386529	      6.34373406	     -4.88042846	    159.84533739	      0.68599629	     47.25898009	    -51.37006729	    -10.53044604
      3.05000000	      1.08331995	     -9.05935204	     88.32835624	      0.20338269	      0.73486112	      0.46645929	      0.25620785	      4.60629940	      0.06314057	      5.88944761	      0.10279025	     34.04588259	     -7.20745886	      0.00000000	      2.56055788	     -2.53135012	     -4.42519561	     11.86462087	      0.20707670	     39.39959265	     12.16078423	      0.00000000	     -0.09805994	      0.74189158	      0.83961641	     -0.18210712	      0.98671580	      0.89209243	     -0.16110268	      1.80383518	      0.89209243	     -0.11207271	      1.80383518	      0.73466436	     -0.09105846	      1.51286530	      0.68218833	     -0.05603145	      1.14919005	      0.62971230	     -0.70043238	      8.39242589	      4.66969457	      0.00000000	      0.00000000	     22.69273493	    -21.86033172	     15.38175256	      9.25184553	    -12.78194725	    126.27884324	     11.54735826	     11.87522837	     -5.50540462	    -12.50631577	      6.63256979	     -4.43952005	    163.30413460	      0.93892213	     44.78016510	    -55.17357565	     -7.64671015
      3.06666667	      1.30235551	     -9.15606874	     88.36264419	      0.20208252	      0.73521072	      0.46776465	      0.64964523	      4.74516873	      0.55035446	      6.00116326	      0.10474006	     34.37727662	     -6.95423495	      0.00000000	      2.73337162	     -2.73331799	     -4.58312187	     12.00270547	      0.20948673	     39.20677483	     12.19138787	      0.00000000	     -0.08222826	      0.82549735	      0.87241742	     -0.15270609	      1.09791148	      0.92694351	     -0.13509280	      2.00711426	      0.92694351	     -0.09397867	      2.00711426	      0.76336525	     -0.07635716	      1.68335420	      0.70883916	     -0.04698522	      1.27869540	      0.65431307	     -0.58734820	      9.33819116	      4.85212399	      0.00000000	      0.00000000	     21.96645162	    -21.82533143	     14.30430498	      9.53968462	    -13.20182628	    126.44748982	     11.46980258	     12.16116358	     -5.31230128	    -13.17521596	      7.09561574	     -3.69185014	    162.61497484	      1.16275003	     43.95071826	    -55.29437486	     -7.39901313
      3.08333333	      1.44726569	     -9.21517786	     88.19972365	      0.20073890	      0.73598775	      0.46950184	      1.04427792	      4.79246270	      1.19629858	      6.05514014	      0.10568213	     34.61088076	     -6.63767578	      0.00000000	      2.83017525	     -2.89411385	     -5.44176937	     12.03126058	      0.20998511	     39.09817088	     13.08832289	      0.00000000	     -0.06343782	      0.90196527	      0.95328514	     -0.11781038	      1.19961381	      1.01286546	     -0.10422200	      2.19303836	      1.01286546	     -0.07250309	      2.19303836	      0.83412449	     -0.05890836	      1.83928758	      0.77454417	     -0.03624837	      1.39714420	      0.71496385	     -0.45313003	     10.20321153	      5.30188595	      0.00000000	      0.00000000	     20.23822064	    -21.47732848	     12.67802849	      9.88889705	    -13.24355011	    130.68091960	     10.36567793	     13.02189140	     -6.51008471	    -14.40084988	      7.59196205	     -3.16737022	    161.39140917	      1.29961227	     36.35808340	    -51.90125181	    -14.26076003
      3.10000000	      1.57694820	     -9.23175864	     88.04984179	      0.19909349	      0.73714544	      0.47149004	      1.44338270	      4.78411279	      1.37069569	      6.16323602	      0.10756876	     34.89705962	     -5.77488103	      0.00000000	      2.89822870	     -2.93576305	     -5.51788858	     11.99377744	      0.20933091	     38.91027036	     13.12938309	      0.00000000	     -0.04565084	      0.97436974	      1.10681462	     -0.08477817	      1.29591175	      1.17599054	     -0.07499976	      2.36908258	      1.17599054	     -0.05217434	      2.36908258	      0.96846280	     -0.04239137	      1.98693477	      0.89928688	     -0.02608489	      1.50929872	      0.83011097	     -0.32607938	     11.02226534	      6.15577090	      0.00000000	      0.00000000	     17.56976824	    -20.57544945	     10.42163191	      9.68699202	    -12.42247184	    147.95758204	      6.34911680	      7.37708452	     -8.24262705	    -15.49443355	      8.31472120	     -2.41032497	    167.81865998	      1.11848840	     24.13536146	    -46.22031749	    -17.57715366
      3.11666667	      1.74937637	     -9.22418037	     87.63432637	      0.19727961	      0.73832998	      0.47334642	      1.80828670	      4.81035364	      1.81339358	      6.31855726	      0.11027963	     35.03557398	     -5.12651474	      0.00000000	      2.81774554	     -2.98299472	     -5.80492281	     11.78200167	      0.20563472	     38.74894847	     13.09377892	      0.00000000	     -0.03517472	      1.05077775	      1.26019395	     -0.06532298	      1.39753441	      1.33895608	     -0.05778855	      2.55486102	      1.33895608	     -0.04020119	      2.55486102	      1.10266971	     -0.03266325	      2.14274599	      1.02390759	     -0.02009884	      1.62765474	      0.94514547	     -0.25124953	     11.88660807	      7.00882071	      0.00000000	      0.00000000	     14.67114026	    -19.34278033	      8.13062654	      9.73276467	    -12.62042975	    154.86281151	      4.57756924	     11.76870779	    -12.96454037	    -15.54644060	      8.76856752	     -1.41108726	    166.34352440	      1.14958783	     21.50877868	    -41.50918309	    -18.44658313
